PathFileType	4	(X/Y/Z)	C:\Users\Basilio\Documents\Thesis Gigler\squatting_fais\c3dfiles\076\SLS_back_pre4\markers_experimental.trc
DataRate	CameraRate	NumFrames	NumMarkers	Units	OrigDataRate	OrigDataStartFrame	OrigNumFrames
200.000000	200.000000	4	61	mm	200.000000	226	1814
Frame#	Time	FHD			LBHD			RBHD			C7			T10			CLAV			LSHO			LUUPA			LMUPA			LDUPA			LLEP			LMEP			LRAD			LUL			LRFIN			RSHO			RUPA1			RMUPA			RDUPA			RLEP			RMEP			RRAD			RUL			RUFIN			LASI			RASI			USACR			LSACR			RSACR			LTHI1			LTHI2			LTHI3			LTHI4			LLFC			LMFC			LTIB1			LTIB2			LTIB3			LTIB4			LLMAL			LMMAL			LHEE			LMT1			LMT2			LMT5			RTHI			RTHI2			RTHI3			RTHI4			RLFC			RMFC			RTIB1			RTIB2			RTIB3			RTIB4			RLMAL			RMMAL			RHEE			RMT1			RMT2			RMT5			
		X1	Y1	Z1	X2	Y2	Z2	X3	Y3	Z3	X4	Y4	Z4	X5	Y5	Z5	X6	Y6	Z6	X7	Y7	Z7	X8	Y8	Z8	X9	Y9	Z9	X10	Y10	Z10	X11	Y11	Z11	X12	Y12	Z12	X13	Y13	Z13	X14	Y14	Z14	X15	Y15	Z15	X16	Y16	Z16	X17	Y17	Z17	X18	Y18	Z18	X19	Y19	Z19	X20	Y20	Z20	X21	Y21	Z21	X22	Y22	Z22	X23	Y23	Z23	X24	Y24	Z24	X25	Y25	Z25	X26	Y26	Z26	X27	Y27	Z27	X28	Y28	Z28	X29	Y29	Z29	X30	Y30	Z30	X31	Y31	Z31	X32	Y32	Z32	X33	Y33	Z33	X34	Y34	Z34	X35	Y35	Z35	X36	Y36	Z36	X37	Y37	Z37	X38	Y38	Z38	X39	Y39	Z39	X40	Y40	Z40	X41	Y41	Z41	X42	Y42	Z42	X43	Y43	Z43	X44	Y44	Z44	X45	Y45	Z45	X46	Y46	Z46	X47	Y47	Z47	X48	Y48	Z48	X49	Y49	Z49	X50	Y50	Z50	X51	Y51	Z51	X52	Y52	Z52	X53	Y53	Z53	X54	Y54	Z54	X55	Y55	Z55	X56	Y56	Z56	X57	Y57	Z57	X58	Y58	Z58	X59	Y59	Z59	X60	Y60	Z60	X61	Y61	Z61	

227	1.13	-177.7635650634766	1640.787841796875	-876.6533203125002	-298.3103637695313	1569.625122070313	-994.7085571289065	-311.5954895019532	1576.531616210938	-843.5622558593752	-355.9643249511719	1449.795043945313	-912.1903076171877	-375.7685241699219	1129.090454101563	-921.6614990234377	-222.1262207031251	1372.45458984375	-911.0336914062502	-299.9822692871094	1405.574829101563	-1081.359252929688	-323.8240966796876	1261.963134765625	-1216.452392578125	-304.3055419921876	1217.261596679688	-1203.947021484375	-333.5461730957032	1206.30517578125	-1256.913330078125	-346.5691528320313	1157.975708007813	-1285.76171875	-422.4502868652345	1140.753784179688	-1241.85302734375	-258.3463134765626	1033.146362304688	-1084.689575195313	-306.7825012207032	1009.153442382813	-1101.189819335938	-265.5211486816407	976.3203125000002	-1138.064819335938	-301.8316650390626	1393.7646484375	-748.4802856445314	-360.3938293457032	1260.771484375	-614.3636474609376	-327.0729064941407	1223.6826171875	-609.1196899414064	-371.8273620605469	1203.684326171875	-573.5284423828126	-364.2604064941407	1134.2626953125	-549.4303588867189	-430.6010131835939	1115.406127929688	-607.6461181640626	-307.2284240722657	1001.146667480469	-741.5986938476564	-255.6735229492188	1026.95458984375	-748.0584106445314	-261.4627990722657	972.1127929687502	-700.7187500000001	-218.1307067871094	945.110046386719	-1031.670654296875	-208.8342285156251	942.4655761718752	-817.7613525390627	-378.1229553222657	1025.44970703125	-917.1647949218752	-386.6992492675782	996.6339111328127	-944.5833740234377	-383.9970703125001	995.4890136718752	-888.3457031250002	-311.1936340332032	797.614685058594	-1095.995239257813	-292.4183349609376	714.6506347656251	-1093.366943359375	-243.7749938964844	711.7318725585939	-1082.11328125	-328.3034973144532	666.9956665039064	-1080.94873046875	-347.7908630371094	507.369354248047	-1055.878173828125	-311.7191467285157	496.7540893554689	-942.471862792969	-317.4606323242188	361.7699279785157	-994.311706542969	-343.6001586914063	311.5897827148438	-1062.688110351563	-313.7165527343751	313.1957702636719	-1027.431762695313	-326.3208618164063	234.9355621337891	-997.5856933593752	-385.442108154297	110.0610427856446	-1052.5986328125	-354.8522949218751	119.8904876708985	-973.9653930664065	-442.0143127441407	97.12793731689456	-1006.723693847656	-240.2636108398438	53.41234588623048	-993.3853149414065	-235.2995758056641	50.66296768188478	-1032.298217773438	-259.7005310058594	44.6177101135254	-1082.597290039063	-319.1584777832032	700.6812133789064	-757.6998291015626	-286.7887878417969	642.0209350585939	-755.5107421875001	-252.195297241211	642.3292846679689	-761.2097778320314	-317.3200683593751	567.2606811523439	-772.3797607421877	-325.1021118164063	506.6777343750001	-779.4909667968752	-286.9631958007813	499.1086425781251	-893.0454101562502	-287.4802551269532	374.4572448730469	-796.0338134765627	-358.5317993164063	294.1703491210938	-778.4222412109377	-311.6867675781251	291.3118286132813	-782.7930297851565	-294.7410278320313	245.4749603271485	-815.224060058594	-356.6406860351563	108.8061676025391	-790.3423461914065	-327.2406005859376	119.0826416015625	-871.0087890625002	-410.2859802246095	92.09181213378908	-835.5509033203127	-209.5781707763672	51.44308853149415	-846.3135986328127	-206.2257080078126	52.15451812744142	-800.8272094726565	-238.0281982421876	36.49048614501954	-748.6568603515626	
228	1.135	-177.7713775634766	1640.808349609375	-876.6424560546877	-298.2064514160157	1569.58544921875	-994.7369384765627	-311.5274047851563	1576.509521484375	-843.4902954101565	-355.9593200683594	1449.760009765625	-912.237243652344	-375.7611694335938	1129.11328125	-921.6662597656252	-222.1604156494141	1372.425048828125	-910.9808349609377	-299.9981994628907	1405.569458007813	-1081.35546875	-323.6747741699219	1261.992065429688	-1216.448852539063	-304.5935058593751	1217.398681640625	-1204.04150390625	-333.5376892089844	1206.37060546875	-1256.891479492188	-347.1265258789063	1158.092163085938	-1286.089721679688	-422.3946533203126	1140.736450195313	-1241.926635742188	-258.3424987792969	1033.204345703125	-1084.64404296875	-306.8753051757813	1009.058654785156	-1101.170166015625	-265.4300842285157	976.3287353515627	-1138.0576171875	-301.8365173339844	1393.759399414063	-748.4250488281251	-360.5212402343751	1260.802856445313	-614.4159545898439	-327.1702270507813	1223.703369140625	-609.0973510742189	-371.9487609863282	1203.6884765625	-573.5289306640626	-364.4038696289063	1134.217529296875	-549.4396972656251	-430.6370544433595	1115.386840820313	-607.7998046875001	-307.2495422363282	1001.157897949219	-741.6081542968751	-255.7188568115235	1026.957885742188	-748.0343017578126	-261.5219116210938	972.0992431640627	-700.7167968750001	-217.9440155029297	945.246520996094	-1031.737670898438	-208.8354949951172	942.466979980469	-817.7620849609377	-378.1387329101563	1025.404418945313	-917.152526855469	-386.6961975097657	996.6309204101565	-944.5921630859377	-384.036834716797	995.4646606445315	-888.361755371094	-311.1113586425782	797.6546020507815	-1096.002319335938	-292.3741149902344	714.6378173828126	-1093.414794921875	-243.7720184326172	711.7329711914064	-1082.071655273438	-328.2192687988282	667.0168457031251	-1080.987426757813	-347.7877807617188	507.3871459960939	-1055.83935546875	-311.6375427246094	496.8138122558595	-942.515075683594	-317.5183105468751	361.7961120605469	-994.3426513671877	-343.6442565917969	311.5658264160157	-1062.662841796875	-313.8104553222657	313.2787170410157	-1027.40625	-326.2421264648438	234.9467315673829	-997.5871582031252	-385.4522094726564	110.0902404785157	-1052.61083984375	-354.8468627929688	119.9347686767578	-973.9802246093752	-442.3124084472657	97.27313232421878	-1006.769592285156	-240.2638854980469	53.41047286987306	-993.388610839844	-235.2866516113282	50.6422805786133	-1032.305419921875	-259.7066650390626	44.59037399291993	-1082.569458007813	-319.1351928710938	700.6608886718751	-757.6733398437501	-286.7908020019532	642.0317993164064	-755.4487304687501	-252.1959686279297	642.3253784179689	-761.2051391601564	-317.3265075683594	567.2572631835939	-772.3533325195315	-325.0858154296876	506.7052307128907	-779.4878540039065	-286.9253845214844	499.145233154297	-893.0338134765627	-287.4973144531251	374.4920349121094	-795.9765625000002	-358.5507202148438	294.1510620117188	-778.4014892578127	-311.7051086425782	291.3039855957032	-782.799499511719	-294.7917785644532	245.516586303711	-815.2502441406252	-356.6507873535157	108.8117370605469	-790.3650512695315	-328.0540466308594	119.1885299682617	-871.1096191406252	-410.2851562500001	92.10543060302736	-835.5408935546877	-209.5904388427735	51.45350265502931	-846.3175048828127	-206.331771850586	52.21632003784181	-800.8508911132815	-238.1784362792969	36.45185470581055	-748.7510986328126	
229	1.14	-177.8123779296875	1640.786865234375	-876.5654907226565	-298.3313293457032	1569.607666015625	-994.7188110351565	-311.5694580078126	1576.517944335938	-843.4750976562502	-355.9909667968751	1449.734252929688	-912.1851196289065	-375.7682495117188	1129.07568359375	-921.6919555664065	-222.0812988281251	1372.411499023438	-910.8953247070315	-299.9166259765626	1405.566040039063	-1081.334594726563	-323.4825439453126	1261.97900390625	-1216.419067382813	-304.4229431152344	1217.38623046875	-1204.043334960938	-333.4645690917969	1206.369750976563	-1256.911499023438	-346.4123535156251	1157.96142578125	-1285.779418945313	-422.2656555175782	1140.693725585938	-1242.013305664063	-258.2269287109376	1033.151733398438	-1084.643432617188	-306.7563171386719	1009.094848632813	-1101.202880859375	-265.3936767578126	976.3328247070315	-1138.024536132813	-301.8906250000001	1393.7314453125	-748.4219360351564	-360.6023559570313	1260.814453125	-614.4137573242189	-327.2242736816407	1223.669311523438	-609.0780029296876	-372.0275878906251	1203.7021484375	-573.5308837890626	-364.4902648925782	1134.183715820313	-549.4705810546876	-430.7093200683595	1115.426391601563	-607.7762451171876	-307.2382812500001	1001.162902832031	-741.6093139648439	-255.7510070800782	1026.939331054688	-747.9906616210939	-261.5644836425782	972.1010742187502	-700.7106323242189	-218.0346832275391	945.1284179687502	-1031.617797851563	-208.8306579589844	942.477478027344	-817.7390747070315	-378.1242065429688	1025.452392578125	-917.166198730469	-386.6902465820314	996.6385498046877	-944.562927246094	-383.9583129882813	995.4436645507815	-888.375183105469	-311.0835571289063	797.6072387695315	-1095.888671875	-292.3833923339844	714.6195068359376	-1093.346069335938	-243.8803710937501	711.7556762695314	-1082.105834960938	-328.2261657714844	666.9703979492189	-1080.921264648438	-347.7981567382813	507.3540954589845	-1055.825439453125	-311.6879577636719	496.7110900878907	-942.4036254882815	-317.4936828613282	361.7911071777344	-994.336120605469	-343.6406860351563	311.5606384277344	-1062.67578125	-313.8254089355469	313.2774353027344	-1027.447265625	-326.2431335449219	234.9520111083985	-997.5849609375002	-385.4258117675782	110.0857391357422	-1052.6162109375	-354.8387756347657	119.9096755981446	-973.9832763671877	-442.3143615722657	97.30335235595706	-1006.767028808594	-240.2713470458985	53.43524551391603	-993.3996582031252	-235.2285156250001	50.57872390747072	-1032.253173828125	-259.7260131835938	44.58174514770509	-1082.565673828125	-319.1643371582032	700.6849365234376	-757.6574096679689	-286.8404235839844	642.0476684570314	-755.4226684570314	-252.2570343017579	642.2916259765626	-761.1738281250001	-317.3035583496094	567.2545166015626	-772.303894042969	-325.0872497558594	506.7025451660157	-779.4578857421877	-286.8746643066407	499.0996093750001	-893.0368652343752	-287.4478454589844	374.5136413574219	-795.9890136718752	-358.5441284179688	294.1387634277344	-778.383728027344	-311.7038574218751	291.2967834472657	-782.7911376953127	-294.7530212402344	245.4922790527344	-815.2168579101565	-356.6411437988282	108.8535690307617	-790.3446044921877	-328.0268554687501	119.2197341918946	-871.1463012695315	-410.3699951171876	92.11300659179689	-835.5073242187502	-209.5870361328126	51.49751281738283	-846.3216552734377	-206.3350982666016	52.20649337768556	-800.848571777344	-238.174057006836	36.48009490966798	-748.7570190429689	
230	1.145	-177.851318359375	1640.814697265625	-876.5891723632815	-298.2489013671876	1569.575317382813	-994.699645996094	-311.6673889160157	1576.501220703125	-843.466491699219	-356.0414428710938	1449.745483398438	-912.188415527344	-375.7130432128907	1129.107299804688	-921.6892089843752	-222.1434783935547	1372.4443359375	-910.9056396484377	-300.6141357421876	1405.7255859375	-1081.613159179688	-323.4789733886719	1261.984985351563	-1216.409545898438	-304.4655151367188	1217.408325195313	-1204.02880859375	-333.4391784667969	1206.395629882813	-1256.927612304688	-346.3188781738282	1157.992309570313	-1285.768432617188	-422.1938781738282	1140.744506835938	-1241.9638671875	-258.4082946777344	1033.20263671875	-1084.600708007813	-306.7343444824219	1009.090576171875	-1101.139770507813	-265.3657531738282	976.319030761719	-1138.0146484375	-301.9131469726563	1393.72021484375	-748.3883056640626	-360.6581420898438	1260.799682617188	-614.3619384765626	-327.3051452636719	1223.6875	-609.0460205078126	-372.0987854003907	1203.702514648438	-573.5311279296876	-364.5461730957032	1134.187255859375	-549.4667358398439	-430.8210754394532	1115.368896484375	-607.8310546875001	-307.2495117187501	1001.180847167969	-741.5876464843751	-255.780746459961	1026.94091796875	-747.9328002929689	-261.5988769531251	972.0910644531252	-700.6587524414064	-217.9779968261719	945.1722412109377	-1031.612426757813	-208.8326110839844	942.4622802734377	-817.7094726562502	-378.0428771972657	1025.431030273438	-917.186462402344	-386.6278686523439	996.6669921875002	-944.5745239257815	-383.9444885253907	995.4475708007815	-888.3784790039065	-311.0284118652344	797.644226074219	-1095.932006835938	-292.3732299804688	714.6239624023439	-1093.341796875	-243.8170166015626	711.7470092773439	-1082.088745117188	-328.0711059570313	666.9509887695314	-1080.943115234375	-347.6513366699219	507.3341674804689	-1055.8095703125	-311.6388854980469	496.795867919922	-942.4058227539065	-317.4698486328126	361.7475280761719	-994.3208007812502	-343.5501403808594	311.6523437500001	-1062.640991210938	-313.8441467285157	313.2224426269532	-1027.4296875	-326.2454223632813	234.9602661132813	-997.585144042969	-385.4913330078126	110.1035842895508	-1052.650512695313	-354.8493652343751	119.909896850586	-973.9573364257815	-442.0401000976564	97.14324188232425	-1006.720947265625	-240.2667846679688	53.45420074462892	-993.3840942382815	-235.2020111083985	50.60289382934572	-1032.320434570313	-259.7102966308594	44.60526275634766	-1082.6044921875	-319.1854553222657	700.6858520507814	-757.9723510742189	-286.8388977050782	642.0404663085939	-755.4506225585939	-252.2408294677735	642.2728271484376	-761.1442260742189	-317.2895507812501	567.2640380859376	-772.3352050781252	-325.0799560546876	506.7171020507814	-779.4475097656252	-286.9859313964844	499.1263427734376	-893.028259277344	-287.5183715820313	374.4900512695313	-796.0120239257815	-358.5468139648438	294.1330261230469	-778.3820800781252	-311.6983642578126	291.2816772460938	-782.789978027344	-294.7982482910157	245.5010070800782	-815.1712646484377	-356.6523742675782	108.8312072753907	-790.3443603515627	-327.2117614746094	119.0726699829102	-871.0388183593752	-410.2980346679689	92.11513519287111	-835.5594482421877	-209.5446777343751	51.48032379150392	-846.296813964844	-206.3413085937501	52.20920181274415	-800.848327636719	-238.1793518066407	36.43931961059571	-748.7471923828126	
